<?xml version="1.0" encoding="utf-8"?>
<svg viewBox="0 0 500 500" xmlns="http://www.w3.org/2000/svg">
  <defs>
    <linearGradient gradientUnits="userSpaceOnUse" x1="250.733" y1="155.44" x2="250.733" y2="242.907" id="gradient-2">
      <stop offset="0" style="stop-color: rgba(255, 0, 0, 1)"/>
      <stop offset="1" style="stop-color: rgba(153, 0, 0, 1)"/>
    </linearGradient>
    <linearGradient gradientUnits="userSpaceOnUse" x1="207.329" y1="256.785" x2="207.329" y2="294.452" id="gradient-3">
      <stop offset="0" style="stop-color: rgba(255, 0, 0, 1)"/>
      <stop offset="1" style="stop-color: rgba(153, 0, 0, 1)"/>
    </linearGradient>
    <linearGradient gradientUnits="userSpaceOnUse" x1="216.087" y1="273.992" x2="216.087" y2="278.687" id="gradient-4">
      <stop offset="0" style="stop-color: rgba(255, 0, 0, 1)"/>
      <stop offset="1" style="stop-color: rgba(153, 0, 0, 1)"/>
    </linearGradient>
    <linearGradient gradientUnits="userSpaceOnUse" x1="254.832" y1="180.278" x2="254.832" y2="223.54" id="gradient-11">
      <stop offset="0" style="stop-color: rgba(255, 0, 0, 1)"/>
      <stop offset="1" style="stop-color: rgba(153, 0, 0, 1)"/>
    </linearGradient>
    <linearGradient gradientUnits="userSpaceOnUse" x1="193.667" y1="129.027" x2="193.667" y2="246.129" id="gradient-0" gradientTransform="matrix(1, 0, 0, 1, 5.351178, 6.933456)">
      <stop offset="0" style="stop-color: rgba(255, 0, 0, 1)"/>
      <stop offset="1" style="stop-color: rgba(153, 0, 0, 1)"/>
    </linearGradient>
    <linearGradient gradientUnits="userSpaceOnUse" x1="180.658" y1="160.961" x2="180.658" y2="184.396" id="gradient-1" gradientTransform="matrix(1, 0, 0, 1, 4.771558, 0.670271)">
      <stop offset="0" style="stop-color: rgba(255, 0, 0, 1)"/>
      <stop offset="1" style="stop-color: rgba(153, 0, 0, 1)"/>
    </linearGradient>
    <linearGradient gradientUnits="userSpaceOnUse" x1="257.238" y1="275.329" x2="257.238" y2="294.152" id="gradient-12">
      <stop offset="0" style="stop-color: rgba(255, 0, 0, 1)"/>
      <stop offset="1" style="stop-color: rgba(153, 0, 0, 1)"/>
    </linearGradient>
    <linearGradient gradientUnits="userSpaceOnUse" x1="248.586" y1="254.826" x2="248.586" y2="294.215" id="gradient-5" gradientTransform="matrix(1, 0, 0, 1, 1.079575, -1.505362)" spreadMethod="pad">
      <stop offset="0" style="stop-color: rgba(255, 0, 0, 1)"/>
      <stop offset="1" style="stop-color: rgba(153, 0, 0, 1)"/>
    </linearGradient>
    <linearGradient gradientUnits="userSpaceOnUse" x1="285.837" y1="247.118" x2="285.837" y2="279.108" id="gradient-6" gradientTransform="matrix(1, 0, 0, 1, 0, 0)">
      <stop offset="0" style="stop-color: rgba(255, 0, 0, 1)"/>
      <stop offset="1" style="stop-color: rgba(153, 0, 0, 1)"/>
    </linearGradient>
    <linearGradient gradientUnits="userSpaceOnUse" x1="242.743" y1="351.808" x2="242.743" y2="376.408" id="gradient-7" gradientTransform="matrix(1, 0, 0, 1, 74.974574, -125.63959)">
      <stop offset="0" style="stop-color: rgba(255, 0, 0, 1)"/>
      <stop offset="1" style="stop-color: rgba(153, 0, 0, 1)"/>
    </linearGradient>
  </defs>
  <circle style="stroke: rgb(0, 0, 0);" transform="matrix(0.703235, 0, 0, 0.682496, -40.787621, -33.470543)" cx="404.313" cy="352.824" r="155.109"/>
  <text style="white-space: pre; fill: rgb(51, 51, 51); font-family: Arial, sans-serif; font-size: 19.7px;" x="187.225" y="234.076"> </text>
  <path style="stroke: rgb(0, 0, 0); paint-order: fill; fill: url(#gradient-2);" d="M 214.349 158.178 C 213.438 165.603 216.617 173.09 218.395 180.209 C 221.985 194.579 226.351 208.522 230.581 222.645 C 232.451 228.888 238.635 236.265 238.635 242.907 C 238.619 236.9 251.66 239.728 255.016 238.894 C 261.964 237.165 271.925 232.718 276.624 227.189 C 292.279 208.764 292.965 161.352 263.111 156.093 C 246.722 153.206 229.965 160.997 214.349 158.178 Z"/>
  <path style="stroke: rgb(0, 0, 0); paint-order: fill; fill: url(#gradient-3);" d="M 219.601 256.785 C 217.555 256.785 214.957 260.331 212.756 261.457 C 208.051 263.865 200.494 263.839 195.057 263.839 C 198.55 270.373 202.644 277.8 206.394 283.667 C 207.274 285.045 217.434 297.792 218.563 297.792"/>
  <path style="stroke: rgb(0, 0, 0); paint-order: fill; fill: url(#gradient-4);" d="M 203.905 278.687 C 205.963 278.687 216.653 281.385 218.711 281.385 C 219.99 281.385 228.268 277.768 228.268 273.992"/>
  <path style="stroke: rgb(0, 0, 0); paint-order: fill; fill: url(#gradient-11);" d="M 238.102 182.871 C 238.102 196.666 247.255 211.267 247.255 223.45 C 248.486 224.494 255.597 216.169 257.282 214.912 C 262.836 210.768 272.983 204.824 271.396 197.433 C 268.719 184.96 262.272 177.787 249.258 181.074 C 246.533 181.763 238.572 180.014 238.102 182.871 Z"/>
  <text style="white-space: pre; fill: rgb(51, 51, 51); font-family: Arial, sans-serif; font-size: 19.7px;" x="165.394" y="200.592"> </text>
  <path style="stroke: rgb(0, 0, 0); fill: url(#gradient-0);" d="M 171.031 245.593 C 171.031 218.754 171.031 191.915 171.031 165.075 C 171.031 156.865 171.783 149.707 172.781 141.635 C 173.016 139.737 171.961 136.894 173.63 135.96 C 173.674 135.935 175.964 141.885 176.223 142.294 C 179.454 147.397 183.353 152.399 186.217 157.686 C 196.701 177.043 204.748 196.654 209.349 217.606 C 211.048 225.344 213.339 234.997 218.28 240.599 C 221.648 244.419 227.159 250.749 227.001 250.749 C 226.708 254.641 214.686 253.365 212.187 248.84 C 206.29 238.163 200.341 225.145 192.9 213.502 C 190.427 209.633 188.186 204.817 185.667 202.297 C 184.29 200.921 184.651 194.598 184.651 196.545 C 184.651 207.294 184.978 217.042 184.978 228.045 C 184.978 242.153 189.586 249.807 171.031 245.593 Z"/>
  <path style="stroke: rgb(0, 0, 0); fill: url(#gradient-1);" d="M 180.13 161.631 C 180.13 167.657 180.13 173.683 180.13 179.709 C 180.13 180.308 180.261 185.041 179.962 185.041 C 182.037 183.811 188.854 186.109 190.568 184.417 C 192.29 182.718 186.767 175.817 185.75 174.226 C 183.833 171.226 182.539 162.592 180.13 161.631 Z"/>
  <path style="stroke: rgb(0, 0, 0); fill: url(#gradient-12);" d="M 244.03 288.565 C 251.432 285.079 256.239 280.462 263.18 276.945 C 265.031 276.007 268.628 274.268 269.361 276.209 C 269.537 276.676 268.446 281.505 268.446 282.695 C 268.446 283.969 270.654 284.541 270.654 285.815 C 270.739 287.116 257.862 290.975 254.832 291.98 C 253.777 292.329 249.415 293.436 249.415 294.152 C 248.16 294.155 247.778 290.739 246.937 289.826 C 246.221 289.049 242.974 288.565 244.03 288.565 Z"/>
  <path style="stroke: rgb(0, 0, 0); paint-order: fill; fill: url(#gradient-5);" d="M 234.894 253.321 C 234.894 266.055 238.433 284.833 247.901 294.301 C 250.284 296.684 258.316 290.959 259.793 290.959"/>
  <path style="stroke: rgb(0, 0, 0); fill: url(#gradient-6);" d="M 267.691 248.91 C 276.122 248.91 285.827 249.935 293.888 248.013 C 295.396 247.654 301.502 246.444 302.991 247.62 C 304.99 249.197 303.704 254.405 301.486 255.574 C 298.852 256.963 293.578 255.821 290.487 255.821 C 289.329 255.821 291.666 258.032 292.395 259.024 C 293.393 260.379 292.589 265.582 292.589 267.633 C 292.589 269.162 292.898 273.216 291.898 272.156 C 290.594 270.771 305.724 268.733 299.164 275.838 C 296.921 278.267 277.432 280.558 274.907 277.959 C 274.606 277.651 274.22 270.892 274.614 270.395 C 276.653 267.809 284.306 273.107 286.108 271.259 C 287.173 270.166 286.279 254.721 285.427 253.92 C 282.204 250.89 274.963 259.846 272.651 256.936 C 271.081 254.959 271.213 246.59 271.213 249.216 C 271.213 250.425 271.168 251.418 271.567 252.579 C 271.878 253.483 272.269 254.356 272.545 255.274" transform="matrix(0.707107, -0.707107, 0.707107, 0.707107, -102.329071, 279.181488)"/>
  <path style="stroke: rgb(0, 0, 0); fill: url(#gradient-7);" d="M 308.579 226.326 C 309.91 226.807 315.333 226.402 316.134 227.065 C 317.064 227.835 317.763 233.461 319.243 234.891 C 319.834 235.462 319.413 233.127 319.991 232.542 C 321.299 231.217 320.698 227.613 321.911 226.331 C 322.258 225.965 327.306 226.331 326.894 226.331 C 328.201 227.785 325.728 229.434 326.594 230.361 C 327.203 231.014 328.838 228.974 329.407 228.974 C 330.752 228.974 327.095 230.56 326.487 231.76 C 325.811 233.094 322.916 238.337 322.916 239.525 C 322.916 240.622 325.505 238.932 326.196 239.784 C 326.785 240.51 330.208 246.918 330.962 246.918 C 329.811 244.569 320.149 251.699 319.002 250.665 C 318.022 249.781 320.251 240.001 316.386 240.001 C 316.407 246.476 309.23 251.696 304.681 247.918 C 303.745 247.139 306.215 246.025 307.005 245.099 C 308.059 243.864 312.258 237.958 312.258 236.655 C 312.251 233 312.234 226.326 308.579 226.326 Z" transform="matrix(0.766044, -0.642788, 0.642788, 0.766044, -78.952759, 260.015778)"/>
</svg>